<?xml version="1.0" encoding="UTF-8" standalone="no"?> <!-- Created with Vectornator for iOS (http://vectornator.io/) --><!DOCTYPE svg PUBLIC "-//W3C//DTD SVG 1.1//EN" "http://www.w3.org/Graphics/SVG/1.1/DTD/svg11.dtd">
<svg height="100%" style="fill-rule:evenodd;clip-rule:evenodd;stroke-linecap:round;stroke-linejoin:round;" xmlns:xlink="http://www.w3.org/1999/xlink" xmlns="http://www.w3.org/2000/svg" xml:space="preserve" width="100%" xmlns:vectornator="http://vectornator.io" version="1.1" viewBox="0 0 1024 1024">
<metadata>
<vectornator:setting key="DisplayWhiteBackground" value="0"/>
<vectornator:setting key="RulersVisible" value="1"/>
<vectornator:setting key="Units" value="Pixels"/>
<vectornator:setting key="New" value="1"/>
<vectornator:setting key="DynamicGuides" value="0"/>
<vectornator:setting key="GuidesVisible" value="1"/>
<vectornator:setting key="SnapToPoints" value="0"/>
<vectornator:setting key="SnapToGrid" value="0"/>
<vectornator:setting key="SnapToGuides" value="1"/>
<vectornator:setting key="DimensionsVisible" value="1"/>
<vectornator:setting key="SnapToEdges" value="0"/>
</metadata>
<defs/>
<g id="Layer 1" vectornator:layerName="Layer 1">
<g opacity="1">
<path d="M219.034+227.761L219.034+302.314L229.844+302.314L229.844+314.707L193.26+314.707L193.26+302.314L204.004+302.314L204.004+227.761L193.26+227.761L193.26+215.369L229.844+215.369L229.844+227.761L219.034+227.761Z" opacity="1" fill="#d99c41"/>
<path d="M218.902+392.761L218.902+467.314L251.531+467.314L251.531+436.531L263.858+436.531L263.858+479.707L191.084+479.707L191.084+467.314L203.872+467.314L203.872+392.761L191.084+392.761L191.084+380.369L231.69+380.369L231.69+392.761L218.902+392.761Z" opacity="1" fill="#d99c41"/>
<path d="M410.928+429.741C410.928+439.849+408.698+448.835+404.237+456.702C399.777+464.568+393.614+470.643+385.747+474.928C377.881+479.213+368.938+481.355+358.919+481.355C349.031+481.355+340.242+479.125+332.552+474.664C324.861+470.204+318.874+464.03+314.589+456.141C310.304+448.253+308.162+439.365+308.162+429.478C308.162+419.678+310.348+410.933+314.721+403.242C319.093+395.552+325.125+389.542+332.815+385.214C340.506+380.885+349.251+378.721+359.051+378.721C369.246+378.721+378.277+380.951+386.143+385.411C394.009+389.872+400.106+395.969+404.435+403.704C408.764+411.438+410.928+420.117+410.928+429.741ZM359.512+468.105C366.324+468.105+372.41+466.326+377.771+462.766C383.133+459.207+387.274+454.482+390.197+448.594C393.119+442.705+394.58+436.421+394.58+429.741C394.58+422.93+393.031+416.613+389.933+410.79C386.835+404.967+382.561+400.375+377.112+397.013C371.663+393.651+365.511+391.97+358.655+391.97C351.931+391.97+345.977+393.607+340.791+396.881C335.606+400.155+331.596+404.67+328.761+410.427C325.927+416.184+324.51+422.578+324.51+429.609C324.51+437.08+325.927+443.738+328.761+449.583C331.596+455.427+335.672+459.976+340.989+463.228C346.306+466.48+352.481+468.105+359.512+468.105Z" opacity="1" fill="#d99c41"/>
<path d="M474.744+392.761L500.122+460.261L524.71+392.761L513.24+392.761L513.24+380.369L551.143+380.369L551.143+392.761L539.278+392.761L506.45+480.762L492.674+480.762L459.319+392.761L447.058+392.761L447.058+380.369L486.214+380.369L486.214+392.761L474.744+392.761Z" opacity="1" fill="#d99c41"/>
<path d="M659.783+409.373L659.783+392.761L617.266+392.761L617.266+422.358L654.246+422.358L654.246+434.751L617.266+434.751L617.266+467.314L659.783+467.314L659.783+449.187L672.044+449.187L672.044+479.707L589.448+479.707L589.448+467.314L602.236+467.314L602.236+392.761L589.448+392.761L589.448+380.369L672.044+380.369L672.044+409.373L659.783+409.373Z" opacity="1" fill="#d99c41"/>
<path d="M288.841+593.555C288.841+610.562+283.71+623.339+273.449+631.886C263.188+640.433+247.928+644.707+227.669+644.707L190.557+644.707L190.557+632.314L203.872+632.314L203.872+557.761L190.557+557.761L190.557+545.369L228.328+545.369C248.675+545.369+263.847+549.214+273.844+556.904C283.842+564.595+288.841+576.812+288.841+593.555ZM272.493+594.214C272.493+585.776+271.01+578.899+268.044+573.582C265.077+568.264+260.375+564.298+253.937+561.683C247.499+559.069+239.007+557.761+228.46+557.761L218.902+557.761L218.902+632.314L228.328+632.314C243.621+632.314+254.805+629.249+261.88+623.119C268.955+616.989+272.493+607.354+272.493+594.214Z" opacity="1" fill="#d99c41"/>
<path d="M390.691+557.366L417.586+632.314L428.66+632.314L428.66+644.707L389.505+644.707L389.505+632.314L402.491+632.314L394.778+609.771L358.721+609.771L351.009+632.314L363.599+632.314L363.599+644.707L324.18+644.707L324.18+632.314L336.177+632.314L362.94+557.366L351.009+557.366L351.009+545.369L402.622+545.369L402.622+557.366L390.691+557.366ZM377.112+557.366L376.651+557.366L362.61+598.103L390.823+598.103L377.112+557.366Z" opacity="1" fill="#d99c41"/>
<path d="M525.83+581.689L525.83+557.761L505.33+557.761L505.33+632.314L518.25+632.314L518.25+644.707L477.644+644.707L477.644+632.314L490.3+632.314L490.3+557.761L469.932+557.761L469.932+581.689L457.671+581.689L457.671+545.369L538.091+545.369L538.091+581.689L525.83+581.689Z" opacity="1" fill="#d99c41"/>
<path d="M633.482+557.366L660.376+632.314L671.45+632.314L671.45+644.707L632.295+644.707L632.295+632.314L645.281+632.314L637.568+609.771L601.511+609.771L593.799+632.314L606.389+632.314L606.389+644.707L566.97+644.707L566.97+632.314L578.967+632.314L605.73+557.366L593.799+557.366L593.799+545.369L645.413+545.369L645.413+557.366L633.482+557.366ZM619.902+557.366L619.441+557.366L605.401+598.103L633.613+598.103L619.902+557.366Z" opacity="1" fill="#d99c41"/>
</g>
</g>
</svg>
